<mxfile host="Electron" modified="2024-11-05T10:08:55.501Z" agent="Mozilla/5.0 (Windows NT 10.0; Win64; x64) AppleWebKit/537.36 (KHTML, like Gecko) draw.io/24.2.5 Chrome/120.0.6099.109 Electron/28.1.0 Safari/537.36" etag="w5fl6JRZeaJa6qXMk53f" version="24.2.5" type="device" pages="3">
  <diagram name="Структурная" id="2YBvvXClWsGukQMizWep">
    <mxGraphModel dx="794" dy="519" grid="1" gridSize="10" guides="1" tooltips="1" connect="1" arrows="1" fold="1" page="1" pageScale="1" pageWidth="850" pageHeight="1100" math="0" shadow="0">
      <root>
        <mxCell id="0" />
        <mxCell id="1" parent="0" />
        <mxCell id="Xhy8-z913uqPu8jckUhC-14" style="edgeStyle=orthogonalEdgeStyle;rounded=0;orthogonalLoop=1;jettySize=auto;html=1;strokeColor=default;align=center;verticalAlign=middle;fontFamily=Helvetica;fontSize=11;fontColor=default;labelBackgroundColor=default;endArrow=none;endFill=0;" parent="1" source="Xhy8-z913uqPu8jckUhC-10" target="Xhy8-z913uqPu8jckUhC-11" edge="1">
          <mxGeometry relative="1" as="geometry" />
        </mxCell>
        <mxCell id="Xhy8-z913uqPu8jckUhC-10" value="Пользовательский интерфейс" style="swimlane;whiteSpace=wrap;html=1;fontFamily=Helvetica;fontSize=11;fontColor=default;labelBackgroundColor=default;" parent="1" vertex="1">
          <mxGeometry x="30" y="20" width="300" height="130" as="geometry" />
        </mxCell>
        <mxCell id="Xhy8-z913uqPu8jckUhC-6" value="Интерфейс для загрузки видео" style="rounded=0;whiteSpace=wrap;html=1;" parent="Xhy8-z913uqPu8jckUhC-10" vertex="1">
          <mxGeometry x="20" y="40" width="120" height="60" as="geometry" />
        </mxCell>
        <mxCell id="Xhy8-z913uqPu8jckUhC-7" value="Интерфейс отображения результатов" style="rounded=0;whiteSpace=wrap;html=1;" parent="Xhy8-z913uqPu8jckUhC-10" vertex="1">
          <mxGeometry x="160" y="40" width="120" height="60" as="geometry" />
        </mxCell>
        <mxCell id="Xhy8-z913uqPu8jckUhC-18" style="edgeStyle=orthogonalEdgeStyle;rounded=0;orthogonalLoop=1;jettySize=auto;html=1;strokeColor=default;align=center;verticalAlign=middle;fontFamily=Helvetica;fontSize=11;fontColor=default;labelBackgroundColor=default;endArrow=none;endFill=0;" parent="1" source="Xhy8-z913uqPu8jckUhC-11" target="Xhy8-z913uqPu8jckUhC-15" edge="1">
          <mxGeometry relative="1" as="geometry" />
        </mxCell>
        <mxCell id="Xhy8-z913uqPu8jckUhC-11" value="Модуль обработки изображений" style="swimlane;whiteSpace=wrap;html=1;fontFamily=Helvetica;fontSize=11;fontColor=default;labelBackgroundColor=default;" parent="1" vertex="1">
          <mxGeometry x="30" y="190" width="300" height="130" as="geometry" />
        </mxCell>
        <mxCell id="Xhy8-z913uqPu8jckUhC-12" value="Компоненты для предобработки" style="rounded=0;whiteSpace=wrap;html=1;" parent="Xhy8-z913uqPu8jckUhC-11" vertex="1">
          <mxGeometry x="20" y="40" width="120" height="60" as="geometry" />
        </mxCell>
        <mxCell id="Xhy8-z913uqPu8jckUhC-13" value="Алгоритмы извлечения признаков" style="rounded=0;whiteSpace=wrap;html=1;" parent="Xhy8-z913uqPu8jckUhC-11" vertex="1">
          <mxGeometry x="160" y="40" width="120" height="60" as="geometry" />
        </mxCell>
        <mxCell id="Xhy8-z913uqPu8jckUhC-26" style="edgeStyle=orthogonalEdgeStyle;rounded=0;orthogonalLoop=1;jettySize=auto;html=1;strokeColor=default;align=center;verticalAlign=middle;fontFamily=Helvetica;fontSize=11;fontColor=default;labelBackgroundColor=default;endArrow=none;endFill=0;" parent="1" source="Xhy8-z913uqPu8jckUhC-15" target="Xhy8-z913uqPu8jckUhC-19" edge="1">
          <mxGeometry relative="1" as="geometry" />
        </mxCell>
        <mxCell id="Xhy8-z913uqPu8jckUhC-15" value="Модуль машинного обучения" style="swimlane;whiteSpace=wrap;html=1;fontFamily=Helvetica;fontSize=11;fontColor=default;labelBackgroundColor=default;" parent="1" vertex="1">
          <mxGeometry x="30" y="350" width="300" height="130" as="geometry" />
        </mxCell>
        <mxCell id="Xhy8-z913uqPu8jckUhC-16" value="Модель МО для классификации телепередач" style="rounded=0;whiteSpace=wrap;html=1;" parent="Xhy8-z913uqPu8jckUhC-15" vertex="1">
          <mxGeometry x="90" y="50" width="120" height="60" as="geometry" />
        </mxCell>
        <mxCell id="Xhy8-z913uqPu8jckUhC-27" style="edgeStyle=orthogonalEdgeStyle;rounded=0;orthogonalLoop=1;jettySize=auto;html=1;strokeColor=default;align=center;verticalAlign=middle;fontFamily=Helvetica;fontSize=11;fontColor=default;labelBackgroundColor=default;endArrow=none;endFill=0;" parent="1" source="Xhy8-z913uqPu8jckUhC-19" target="Xhy8-z913uqPu8jckUhC-25" edge="1">
          <mxGeometry relative="1" as="geometry" />
        </mxCell>
        <mxCell id="Xhy8-z913uqPu8jckUhC-19" value="Модуль поиска и отображения результатов" style="swimlane;whiteSpace=wrap;html=1;fontFamily=Helvetica;fontSize=11;fontColor=default;labelBackgroundColor=default;" parent="1" vertex="1">
          <mxGeometry x="30" y="510" width="300" height="130" as="geometry" />
        </mxCell>
        <mxCell id="Xhy8-z913uqPu8jckUhC-20" value="Поиск в БД" style="rounded=0;whiteSpace=wrap;html=1;" parent="Xhy8-z913uqPu8jckUhC-19" vertex="1">
          <mxGeometry x="20" y="50" width="120" height="60" as="geometry" />
        </mxCell>
        <mxCell id="Xhy8-z913uqPu8jckUhC-21" value="Формирование информации для вывода" style="rounded=0;whiteSpace=wrap;html=1;" parent="Xhy8-z913uqPu8jckUhC-19" vertex="1">
          <mxGeometry x="160" y="50" width="120" height="60" as="geometry" />
        </mxCell>
        <mxCell id="Xhy8-z913uqPu8jckUhC-25" value="БД" style="rounded=0;whiteSpace=wrap;html=1;" parent="1" vertex="1">
          <mxGeometry x="120" y="680" width="120" height="60" as="geometry" />
        </mxCell>
      </root>
    </mxGraphModel>
  </diagram>
  <diagram id="JtmkYJL3S3MbgOjVV1W5" name="Функциональная">
    <mxGraphModel dx="794" dy="519" grid="1" gridSize="10" guides="1" tooltips="1" connect="1" arrows="1" fold="1" page="1" pageScale="1" pageWidth="827" pageHeight="1169" math="0" shadow="0">
      <root>
        <mxCell id="0" />
        <mxCell id="1" parent="0" />
        <mxCell id="P9iOWwEfQE9yXsueIdrj-24" style="edgeStyle=orthogonalEdgeStyle;rounded=0;orthogonalLoop=1;jettySize=auto;html=1;strokeColor=default;align=center;verticalAlign=middle;fontFamily=Helvetica;fontSize=11;fontColor=default;labelBackgroundColor=default;endArrow=classic;endFill=1;" parent="1" source="P9iOWwEfQE9yXsueIdrj-16" target="P9iOWwEfQE9yXsueIdrj-15" edge="1">
          <mxGeometry relative="1" as="geometry" />
        </mxCell>
        <mxCell id="P9iOWwEfQE9yXsueIdrj-16" value="БД" style="rounded=0;whiteSpace=wrap;html=1;" parent="1" vertex="1">
          <mxGeometry x="130" y="525" width="120" height="60" as="geometry" />
        </mxCell>
        <mxCell id="P9iOWwEfQE9yXsueIdrj-18" style="edgeStyle=orthogonalEdgeStyle;rounded=0;orthogonalLoop=1;jettySize=auto;html=1;strokeColor=default;align=center;verticalAlign=middle;fontFamily=Helvetica;fontSize=11;fontColor=default;labelBackgroundColor=default;endArrow=classic;endFill=1;" parent="1" source="P9iOWwEfQE9yXsueIdrj-17" target="P9iOWwEfQE9yXsueIdrj-3" edge="1">
          <mxGeometry relative="1" as="geometry">
            <mxPoint x="320" y="75" as="targetPoint" />
            <Array as="points" />
          </mxGeometry>
        </mxCell>
        <mxCell id="P9iOWwEfQE9yXsueIdrj-17" value="Изображение / Видеофрагмент" style="shape=manualInput;whiteSpace=wrap;html=1;fontFamily=Helvetica;fontSize=11;fontColor=default;labelBackgroundColor=default;align=right;verticalAlign=bottom;" parent="1" vertex="1">
          <mxGeometry x="320" y="50" width="110" height="60" as="geometry" />
        </mxCell>
        <mxCell id="P9iOWwEfQE9yXsueIdrj-27" value="" style="edgeStyle=orthogonalEdgeStyle;rounded=0;orthogonalLoop=1;jettySize=auto;html=1;strokeColor=default;align=center;verticalAlign=middle;fontFamily=Helvetica;fontSize=11;fontColor=default;labelBackgroundColor=default;endArrow=classic;endFill=1;" parent="1" source="P9iOWwEfQE9yXsueIdrj-4" target="P9iOWwEfQE9yXsueIdrj-26" edge="1">
          <mxGeometry relative="1" as="geometry" />
        </mxCell>
        <mxCell id="P9iOWwEfQE9yXsueIdrj-4" value="Интерфейс отображения результатов" style="rounded=0;whiteSpace=wrap;html=1;" parent="1" vertex="1">
          <mxGeometry x="294" y="240" width="120" height="60" as="geometry" />
        </mxCell>
        <mxCell id="P9iOWwEfQE9yXsueIdrj-19" style="edgeStyle=orthogonalEdgeStyle;rounded=0;orthogonalLoop=1;jettySize=auto;html=1;strokeColor=default;align=center;verticalAlign=middle;fontFamily=Helvetica;fontSize=11;fontColor=default;labelBackgroundColor=default;endArrow=classic;endFill=1;" parent="1" source="P9iOWwEfQE9yXsueIdrj-3" target="P9iOWwEfQE9yXsueIdrj-7" edge="1">
          <mxGeometry relative="1" as="geometry" />
        </mxCell>
        <mxCell id="P9iOWwEfQE9yXsueIdrj-3" value="Интерфейс для загрузки видео" style="rounded=0;whiteSpace=wrap;html=1;" parent="1" vertex="1">
          <mxGeometry x="130" y="50" width="120" height="60" as="geometry" />
        </mxCell>
        <mxCell id="P9iOWwEfQE9yXsueIdrj-20" style="edgeStyle=orthogonalEdgeStyle;rounded=0;orthogonalLoop=1;jettySize=auto;html=1;strokeColor=default;align=center;verticalAlign=middle;fontFamily=Helvetica;fontSize=11;fontColor=default;labelBackgroundColor=default;endArrow=classic;endFill=1;" parent="1" source="P9iOWwEfQE9yXsueIdrj-7" target="P9iOWwEfQE9yXsueIdrj-8" edge="1">
          <mxGeometry relative="1" as="geometry" />
        </mxCell>
        <mxCell id="P9iOWwEfQE9yXsueIdrj-7" value="Компоненты для предобработки" style="rounded=0;whiteSpace=wrap;html=1;" parent="1" vertex="1">
          <mxGeometry x="130" y="150" width="120" height="60" as="geometry" />
        </mxCell>
        <mxCell id="P9iOWwEfQE9yXsueIdrj-21" style="edgeStyle=orthogonalEdgeStyle;rounded=0;orthogonalLoop=1;jettySize=auto;html=1;strokeColor=default;align=center;verticalAlign=middle;fontFamily=Helvetica;fontSize=11;fontColor=default;labelBackgroundColor=default;endArrow=classic;endFill=1;" parent="1" source="P9iOWwEfQE9yXsueIdrj-8" target="P9iOWwEfQE9yXsueIdrj-11" edge="1">
          <mxGeometry relative="1" as="geometry" />
        </mxCell>
        <mxCell id="P9iOWwEfQE9yXsueIdrj-8" value="Алгоритмы извлечения признаков" style="rounded=0;whiteSpace=wrap;html=1;" parent="1" vertex="1">
          <mxGeometry x="130" y="240" width="120" height="60" as="geometry" />
        </mxCell>
        <mxCell id="P9iOWwEfQE9yXsueIdrj-22" style="edgeStyle=orthogonalEdgeStyle;rounded=0;orthogonalLoop=1;jettySize=auto;html=1;strokeColor=default;align=center;verticalAlign=middle;fontFamily=Helvetica;fontSize=11;fontColor=default;labelBackgroundColor=default;endArrow=classic;endFill=1;" parent="1" source="P9iOWwEfQE9yXsueIdrj-11" target="P9iOWwEfQE9yXsueIdrj-14" edge="1">
          <mxGeometry relative="1" as="geometry" />
        </mxCell>
        <mxCell id="P9iOWwEfQE9yXsueIdrj-11" value="Модель МО для классификации телепередач" style="rounded=0;whiteSpace=wrap;html=1;" parent="1" vertex="1">
          <mxGeometry x="130" y="330" width="120" height="60" as="geometry" />
        </mxCell>
        <mxCell id="P9iOWwEfQE9yXsueIdrj-25" style="edgeStyle=orthogonalEdgeStyle;rounded=0;orthogonalLoop=1;jettySize=auto;html=1;strokeColor=default;align=center;verticalAlign=middle;fontFamily=Helvetica;fontSize=11;fontColor=default;labelBackgroundColor=default;endArrow=classic;endFill=1;" parent="1" source="P9iOWwEfQE9yXsueIdrj-15" target="P9iOWwEfQE9yXsueIdrj-4" edge="1">
          <mxGeometry relative="1" as="geometry" />
        </mxCell>
        <mxCell id="P9iOWwEfQE9yXsueIdrj-15" value="Формирование информации для вывода" style="rounded=0;whiteSpace=wrap;html=1;" parent="1" vertex="1">
          <mxGeometry x="294" y="350" width="120" height="60" as="geometry" />
        </mxCell>
        <mxCell id="P9iOWwEfQE9yXsueIdrj-23" style="edgeStyle=orthogonalEdgeStyle;rounded=0;orthogonalLoop=1;jettySize=auto;html=1;strokeColor=default;align=center;verticalAlign=middle;fontFamily=Helvetica;fontSize=11;fontColor=default;labelBackgroundColor=default;endArrow=classic;endFill=1;" parent="1" source="P9iOWwEfQE9yXsueIdrj-14" target="P9iOWwEfQE9yXsueIdrj-16" edge="1">
          <mxGeometry relative="1" as="geometry" />
        </mxCell>
        <mxCell id="P9iOWwEfQE9yXsueIdrj-14" value="Поиск в БД" style="rounded=0;whiteSpace=wrap;html=1;" parent="1" vertex="1">
          <mxGeometry x="130" y="420" width="120" height="60" as="geometry" />
        </mxCell>
        <mxCell id="P9iOWwEfQE9yXsueIdrj-26" value="Результат" style="shape=display;whiteSpace=wrap;html=1;fontFamily=Helvetica;fontSize=11;fontColor=default;labelBackgroundColor=default;" parent="1" vertex="1">
          <mxGeometry x="314" y="150" width="80" height="40" as="geometry" />
        </mxCell>
      </root>
    </mxGraphModel>
  </diagram>
  <diagram id="zu1P3EPsuwU7Xn169ZAO" name="Описание компонентов">
    <mxGraphModel dx="1323" dy="865" grid="1" gridSize="10" guides="1" tooltips="1" connect="1" arrows="1" fold="1" page="1" pageScale="1" pageWidth="827" pageHeight="1169" math="0" shadow="0">
      <root>
        <mxCell id="0" />
        <mxCell id="1" parent="0" />
        <mxCell id="CA1_GyaabQnWILwRNP8R-2" style="edgeStyle=orthogonalEdgeStyle;rounded=0;orthogonalLoop=1;jettySize=auto;html=1;entryX=0;entryY=0.5;entryDx=0;entryDy=0;" edge="1" parent="1" source="CA1_GyaabQnWILwRNP8R-1" target="8dLn6kWw0HhKBP09OjSo-5">
          <mxGeometry relative="1" as="geometry">
            <mxPoint x="410" y="210" as="targetPoint" />
            <Array as="points">
              <mxPoint x="260" y="265" />
              <mxPoint x="60" y="265" />
              <mxPoint x="60" y="340" />
            </Array>
          </mxGeometry>
        </mxCell>
        <mxCell id="CA1_GyaabQnWILwRNP8R-5" value="Видеофайл/изображение" style="edgeLabel;html=1;align=center;verticalAlign=middle;resizable=0;points=[];" vertex="1" connectable="0" parent="CA1_GyaabQnWILwRNP8R-2">
          <mxGeometry x="0.4701" y="1" relative="1" as="geometry">
            <mxPoint x="-21" y="-29" as="offset" />
          </mxGeometry>
        </mxCell>
        <mxCell id="CA1_GyaabQnWILwRNP8R-3" style="edgeStyle=orthogonalEdgeStyle;rounded=0;orthogonalLoop=1;jettySize=auto;html=1;startArrow=classic;startFill=1;endArrow=none;endFill=0;" edge="1" parent="1" source="CA1_GyaabQnWILwRNP8R-1">
          <mxGeometry relative="1" as="geometry">
            <mxPoint x="100" y="210" as="targetPoint" />
          </mxGeometry>
        </mxCell>
        <mxCell id="CA1_GyaabQnWILwRNP8R-4" value="Пользовательский ввод" style="edgeLabel;html=1;align=center;verticalAlign=middle;resizable=0;points=[];" vertex="1" connectable="0" parent="CA1_GyaabQnWILwRNP8R-3">
          <mxGeometry x="0.4396" y="-1" relative="1" as="geometry">
            <mxPoint x="-8" y="-19" as="offset" />
          </mxGeometry>
        </mxCell>
        <mxCell id="CA1_GyaabQnWILwRNP8R-1" value="Интерфейс для загрузки видео" style="rounded=0;whiteSpace=wrap;html=1;" vertex="1" parent="1">
          <mxGeometry x="200" y="180" width="120" height="60" as="geometry" />
        </mxCell>
        <mxCell id="Wb9NDqVCcSAxEgXEN_8J-2" style="edgeStyle=orthogonalEdgeStyle;rounded=0;orthogonalLoop=1;jettySize=auto;html=1;" edge="1" parent="1" source="USt3ba_aJKH7huANVrqa-6">
          <mxGeometry relative="1" as="geometry">
            <mxPoint x="700" y="750" as="targetPoint" />
          </mxGeometry>
        </mxCell>
        <mxCell id="Wb9NDqVCcSAxEgXEN_8J-3" value="Отображение пользователю" style="edgeLabel;html=1;align=center;verticalAlign=middle;resizable=0;points=[];" vertex="1" connectable="0" parent="Wb9NDqVCcSAxEgXEN_8J-2">
          <mxGeometry x="0.3338" y="4" relative="1" as="geometry">
            <mxPoint x="41" y="-16" as="offset" />
          </mxGeometry>
        </mxCell>
        <mxCell id="USt3ba_aJKH7huANVrqa-6" value="Интерфейс отображения результатов" style="rounded=0;whiteSpace=wrap;html=1;" vertex="1" parent="1">
          <mxGeometry x="520" y="720" width="120" height="60" as="geometry" />
        </mxCell>
        <mxCell id="8dLn6kWw0HhKBP09OjSo-1" style="edgeStyle=orthogonalEdgeStyle;rounded=0;orthogonalLoop=1;jettySize=auto;html=1;entryX=0;entryY=0.5;entryDx=0;entryDy=0;" edge="1" parent="1" source="8dLn6kWw0HhKBP09OjSo-5" target="8dLn6kWw0HhKBP09OjSo-10">
          <mxGeometry relative="1" as="geometry">
            <mxPoint x="410" y="340" as="targetPoint" />
            <Array as="points">
              <mxPoint x="270" y="410" />
              <mxPoint x="60" y="410" />
              <mxPoint x="60" y="480" />
            </Array>
          </mxGeometry>
        </mxCell>
        <mxCell id="8dLn6kWw0HhKBP09OjSo-2" value="Обработнные данные" style="edgeLabel;html=1;align=center;verticalAlign=middle;resizable=0;points=[];" vertex="1" connectable="0" parent="8dLn6kWw0HhKBP09OjSo-1">
          <mxGeometry x="0.4701" y="1" relative="1" as="geometry">
            <mxPoint x="12" y="-19" as="offset" />
          </mxGeometry>
        </mxCell>
        <mxCell id="8dLn6kWw0HhKBP09OjSo-3" style="edgeStyle=orthogonalEdgeStyle;rounded=0;orthogonalLoop=1;jettySize=auto;html=1;startArrow=classic;startFill=1;endArrow=none;endFill=0;" edge="1" parent="1" source="8dLn6kWw0HhKBP09OjSo-5">
          <mxGeometry relative="1" as="geometry">
            <mxPoint x="110" y="340" as="targetPoint" />
          </mxGeometry>
        </mxCell>
        <mxCell id="8dLn6kWw0HhKBP09OjSo-5" value="Компоненты для предобработки" style="rounded=0;whiteSpace=wrap;html=1;" vertex="1" parent="1">
          <mxGeometry x="210" y="310" width="120" height="60" as="geometry" />
        </mxCell>
        <mxCell id="8dLn6kWw0HhKBP09OjSo-6" style="edgeStyle=orthogonalEdgeStyle;rounded=0;orthogonalLoop=1;jettySize=auto;html=1;entryX=0;entryY=0.5;entryDx=0;entryDy=0;" edge="1" parent="1" source="8dLn6kWw0HhKBP09OjSo-10" target="wZiBYahngklIc1PBBzS9-5">
          <mxGeometry relative="1" as="geometry">
            <mxPoint x="400" y="480" as="targetPoint" />
            <Array as="points">
              <mxPoint x="260" y="530" />
              <mxPoint x="60" y="530" />
              <mxPoint x="60" y="570" />
            </Array>
          </mxGeometry>
        </mxCell>
        <mxCell id="8dLn6kWw0HhKBP09OjSo-7" value="Признаки для модели МО" style="edgeLabel;html=1;align=center;verticalAlign=middle;resizable=0;points=[];" vertex="1" connectable="0" parent="8dLn6kWw0HhKBP09OjSo-6">
          <mxGeometry x="0.4701" y="1" relative="1" as="geometry">
            <mxPoint x="12" y="-19" as="offset" />
          </mxGeometry>
        </mxCell>
        <mxCell id="8dLn6kWw0HhKBP09OjSo-10" value="Алгоритм извлечения признаков" style="rounded=0;whiteSpace=wrap;html=1;" vertex="1" parent="1">
          <mxGeometry x="200" y="450" width="120" height="60" as="geometry" />
        </mxCell>
        <mxCell id="wZiBYahngklIc1PBBzS9-1" style="edgeStyle=orthogonalEdgeStyle;rounded=0;orthogonalLoop=1;jettySize=auto;html=1;" edge="1" parent="1" source="wZiBYahngklIc1PBBzS9-5" target="m5lpQ8HKUemsLjIif-sB-5">
          <mxGeometry relative="1" as="geometry">
            <mxPoint x="400" y="570" as="targetPoint" />
          </mxGeometry>
        </mxCell>
        <mxCell id="wZiBYahngklIc1PBBzS9-2" value="Предсказание на основе модели" style="edgeLabel;html=1;align=center;verticalAlign=middle;resizable=0;points=[];" vertex="1" connectable="0" parent="wZiBYahngklIc1PBBzS9-1">
          <mxGeometry x="0.4701" y="1" relative="1" as="geometry">
            <mxPoint x="-47" y="-19" as="offset" />
          </mxGeometry>
        </mxCell>
        <mxCell id="wZiBYahngklIc1PBBzS9-5" value="Модель МО" style="rounded=0;whiteSpace=wrap;html=1;" vertex="1" parent="1">
          <mxGeometry x="200" y="540" width="120" height="60" as="geometry" />
        </mxCell>
        <mxCell id="eGCq8gASUKpd-wSrJviy-1" style="edgeStyle=orthogonalEdgeStyle;rounded=0;orthogonalLoop=1;jettySize=auto;html=1;entryX=0;entryY=0.5;entryDx=0;entryDy=0;" edge="1" parent="1" source="eGCq8gASUKpd-wSrJviy-5" target="MubdR3RjqJo_nvfEfuHu-5">
          <mxGeometry relative="1" as="geometry">
            <mxPoint x="400" y="810" as="targetPoint" />
            <Array as="points">
              <mxPoint x="260" y="860" />
              <mxPoint x="90" y="860" />
              <mxPoint x="90" y="900" />
            </Array>
          </mxGeometry>
        </mxCell>
        <mxCell id="eGCq8gASUKpd-wSrJviy-2" value="Запрос на языке SQL" style="edgeLabel;html=1;align=center;verticalAlign=middle;resizable=0;points=[];" vertex="1" connectable="0" parent="eGCq8gASUKpd-wSrJviy-1">
          <mxGeometry x="0.4701" y="1" relative="1" as="geometry">
            <mxPoint x="12" y="-19" as="offset" />
          </mxGeometry>
        </mxCell>
        <mxCell id="eGCq8gASUKpd-wSrJviy-3" style="edgeStyle=orthogonalEdgeStyle;rounded=0;orthogonalLoop=1;jettySize=auto;html=1;startArrow=classic;startFill=1;endArrow=none;endFill=0;entryX=0.5;entryY=1;entryDx=0;entryDy=0;" edge="1" parent="1" source="eGCq8gASUKpd-wSrJviy-5" target="wZiBYahngklIc1PBBzS9-5">
          <mxGeometry relative="1" as="geometry">
            <mxPoint x="100" y="810" as="targetPoint" />
            <Array as="points">
              <mxPoint x="90" y="810" />
              <mxPoint x="90" y="600" />
            </Array>
          </mxGeometry>
        </mxCell>
        <mxCell id="eGCq8gASUKpd-wSrJviy-4" value="Запрос от модели" style="edgeLabel;html=1;align=center;verticalAlign=middle;resizable=0;points=[];" vertex="1" connectable="0" parent="eGCq8gASUKpd-wSrJviy-3">
          <mxGeometry x="0.4396" y="-1" relative="1" as="geometry">
            <mxPoint x="-12" y="39" as="offset" />
          </mxGeometry>
        </mxCell>
        <mxCell id="eGCq8gASUKpd-wSrJviy-5" value="Поиск в БД" style="rounded=0;whiteSpace=wrap;html=1;" vertex="1" parent="1">
          <mxGeometry x="200" y="780" width="120" height="60" as="geometry" />
        </mxCell>
        <mxCell id="MubdR3RjqJo_nvfEfuHu-1" style="edgeStyle=orthogonalEdgeStyle;rounded=0;orthogonalLoop=1;jettySize=auto;html=1;" edge="1" parent="1" source="MubdR3RjqJo_nvfEfuHu-5" target="wZiBYahngklIc1PBBzS9-5">
          <mxGeometry relative="1" as="geometry">
            <mxPoint x="400" y="900" as="targetPoint" />
            <Array as="points">
              <mxPoint x="380" y="900" />
              <mxPoint x="380" y="630" />
              <mxPoint x="260" y="630" />
            </Array>
          </mxGeometry>
        </mxCell>
        <mxCell id="MubdR3RjqJo_nvfEfuHu-2" value="Данные поиска" style="edgeLabel;html=1;align=center;verticalAlign=middle;resizable=0;points=[];" vertex="1" connectable="0" parent="MubdR3RjqJo_nvfEfuHu-1">
          <mxGeometry x="0.4701" y="1" relative="1" as="geometry">
            <mxPoint x="12" y="-19" as="offset" />
          </mxGeometry>
        </mxCell>
        <mxCell id="MubdR3RjqJo_nvfEfuHu-5" value="БД" style="rounded=0;whiteSpace=wrap;html=1;" vertex="1" parent="1">
          <mxGeometry x="200" y="870" width="120" height="60" as="geometry" />
        </mxCell>
        <mxCell id="m5lpQ8HKUemsLjIif-sB-1" style="edgeStyle=orthogonalEdgeStyle;rounded=0;orthogonalLoop=1;jettySize=auto;html=1;" edge="1" parent="1" source="m5lpQ8HKUemsLjIif-sB-5" target="USt3ba_aJKH7huANVrqa-6">
          <mxGeometry relative="1" as="geometry">
            <mxPoint x="720" y="570" as="targetPoint" />
          </mxGeometry>
        </mxCell>
        <mxCell id="m5lpQ8HKUemsLjIif-sB-2" value="Информация для вывода" style="edgeLabel;html=1;align=center;verticalAlign=middle;resizable=0;points=[];" vertex="1" connectable="0" parent="m5lpQ8HKUemsLjIif-sB-1">
          <mxGeometry x="0.4701" y="1" relative="1" as="geometry">
            <mxPoint x="12" y="-19" as="offset" />
          </mxGeometry>
        </mxCell>
        <mxCell id="m5lpQ8HKUemsLjIif-sB-5" value="Формирование информации для вывода" style="rounded=0;whiteSpace=wrap;html=1;" vertex="1" parent="1">
          <mxGeometry x="520" y="540" width="120" height="60" as="geometry" />
        </mxCell>
      </root>
    </mxGraphModel>
  </diagram>
</mxfile>
